<svg width="19" height="20" viewBox="0 0 19 20" fill="none" xmlns="http://www.w3.org/2000/svg">
<path d="M7.74473 17.7278C7.74471 17.5945 7.71537 17.4629 7.6588 17.3422C7.60223 17.2215 7.51981 17.1147 7.41737 17.0295C7.31494 16.9442 7.195 16.8825 7.06606 16.8487C6.93712 16.8149 6.80233 16.8099 6.67124 16.8341C5.48149 17.0524 3.97932 17.0852 3.57992 15.9634C3.23166 15.0945 2.65478 14.3361 1.91045 13.7685C1.85735 13.7396 1.80673 13.7064 1.75913 13.6691C1.69399 13.4973 1.57828 13.3492 1.42728 13.2445C1.27627 13.1398 1.09706 13.0833 0.913294 13.0825H0.908859C0.668559 13.0824 0.438011 13.1775 0.267678 13.347C0.0973454 13.5165 0.00110167 13.7466 1.27429e-05 13.9869C-0.00354085 14.728 0.737087 15.2028 1.03755 15.3634C1.39186 15.7194 1.67661 16.1384 1.87717 16.5989C2.20823 17.5291 3.17032 18.9403 5.93591 18.7583C5.93682 18.7903 5.93769 18.8205 5.93813 18.848L5.94212 19.0912C5.94212 19.3322 6.03787 19.5634 6.20832 19.7338C6.37876 19.9042 6.60993 20 6.85097 20C7.09201 20 7.32318 19.9042 7.49362 19.7338C7.66406 19.5634 7.75981 19.3322 7.75981 19.0912L7.75538 18.8018C7.75094 18.6296 7.74473 18.3802 7.74473 17.7278ZM17.4394 3.98063C17.4682 3.86702 17.4966 3.74099 17.5215 3.59898C17.6685 2.58615 17.5403 1.55243 17.1505 0.606153C17.1013 0.482789 17.0257 0.371677 16.9291 0.280607C16.8324 0.189537 16.717 0.120712 16.5909 0.0789586C16.2673 -0.030212 15.0728 -0.244999 12.7882 1.21502C10.8892 0.768132 8.9124 0.768132 7.0134 1.21502C4.73817 -0.223614 3.54975 -0.0283943 3.22934 0.0745598C3.10016 0.114622 2.98159 0.183082 2.8823 0.274922C2.78301 0.366762 2.70553 0.479655 2.65554 0.605326C2.25774 1.56977 2.13099 2.62458 2.28899 3.65581C2.31118 3.77208 2.33514 3.87948 2.36 3.97799C1.60708 4.98085 1.20604 6.20408 1.21906 7.45805C1.2166 7.73783 1.22949 8.01753 1.25766 8.29589C1.56122 12.4789 4.28776 13.7348 6.18753 14.1661C6.14804 14.2797 6.11209 14.4013 6.08014 14.53C6.02319 14.7639 6.0613 15.0107 6.18611 15.2165C6.31092 15.4223 6.51224 15.5702 6.74593 15.6278C6.97962 15.6854 7.22661 15.6479 7.43272 15.5236C7.63884 15.3994 7.78727 15.1984 7.84546 14.9649C7.90329 14.6621 8.05152 14.3839 8.2706 14.167C8.40307 14.051 8.49898 13.8991 8.54667 13.7296C8.59435 13.5601 8.59176 13.3804 8.53919 13.2124C8.48663 13.0443 8.38636 12.8952 8.2506 12.7831C8.11483 12.671 7.94941 12.6008 7.77446 12.581C4.63522 12.2224 3.27239 10.9434 3.06737 8.12904C3.04466 7.90613 3.03444 7.68212 3.03675 7.45806C3.02217 6.56435 3.31743 5.69315 3.87237 4.99246C3.92813 4.91941 3.98752 4.84921 4.05032 4.78211C4.16159 4.6576 4.23641 4.50484 4.26655 4.3406C4.29669 4.17636 4.28099 4.00698 4.22118 3.85108C4.15987 3.68706 4.11266 3.51811 4.08007 3.34606C4.00603 2.85684 4.03031 2.35777 4.1515 1.87806C4.94141 2.10115 5.68483 2.4643 6.34637 2.9502C6.45576 3.02307 6.57955 3.07156 6.70933 3.09239C6.83912 3.11321 6.97186 3.10589 7.09856 3.07092C8.93544 2.57241 10.872 2.57273 12.7087 3.07182C12.8361 3.10676 12.9696 3.11367 13.0999 3.09206C13.2302 3.07046 13.3543 3.02086 13.4636 2.94669C14.122 2.45876 14.8623 2.09237 15.6496 1.86477C15.7703 2.33296 15.7973 2.82038 15.729 3.29904C15.6961 3.48766 15.6447 3.67257 15.5755 3.8511C15.5157 4.007 15.5 4.17637 15.5301 4.34062C15.5603 4.50486 15.6351 4.65762 15.7464 4.78213C15.8165 4.86112 15.8866 4.94632 15.9496 5.0262C16.5006 5.71503 16.7909 6.57621 16.7693 7.45805C16.7709 7.694 16.7595 7.92985 16.7351 8.16453C16.535 10.9417 15.1668 12.2215 12.0129 12.581C11.8379 12.6009 11.6725 12.6712 11.5368 12.7834C11.401 12.8956 11.3008 13.0449 11.2483 13.213C11.1958 13.3811 11.1932 13.5608 11.241 13.7304C11.2887 13.8999 11.3847 14.0519 11.5172 14.1679C11.7432 14.3906 11.8918 14.6799 11.941 14.9933C12.0025 15.2366 12.0307 15.4871 12.0249 15.738V17.8592C12.016 18.4476 12.016 18.8887 12.016 19.0911C12.016 19.3321 12.1118 19.5633 12.2822 19.7337C12.4527 19.9042 12.6838 19.9999 12.9249 19.9999C13.1659 19.9999 13.3971 19.9042 13.5675 19.7337C13.738 19.5633 13.8337 19.3321 13.8337 19.0911C13.8337 18.8941 13.8337 18.4618 13.8426 17.8734V15.738C13.8499 15.3361 13.8026 14.9351 13.7019 14.546C13.6731 14.4182 13.6379 14.2921 13.5963 14.1679C14.9789 13.9382 16.2351 13.2254 17.1414 12.1563C18.0476 11.0872 18.5451 9.73116 18.5452 8.32963C18.5752 8.04009 18.5891 7.74912 18.587 7.45805C18.6072 6.20273 18.2028 4.97736 17.4394 3.98063Z" fill="#A5ABBD"/>
</svg>
