<svg width="20" height="20" viewBox="0 0 20 20" fill="none" xmlns="http://www.w3.org/2000/svg">
<path d="M17.1429 20H15.5524C15.0472 20 14.5627 19.7993 14.2055 19.4421C13.8483 19.0849 13.6476 18.6004 13.6476 18.0952V12.981C13.6561 12.7804 13.5955 12.583 13.4759 12.4217C13.3563 12.2605 13.1849 12.1452 12.9905 12.0952C12.8774 12.078 12.7619 12.0853 12.6518 12.1165C12.5417 12.1477 12.4396 12.2022 12.3524 12.2762C12.2626 12.3524 12.1905 12.4473 12.1412 12.5542C12.0918 12.6611 12.0664 12.7775 12.0667 12.8952V18.0952C12.0667 18.6004 11.866 19.0849 11.5088 19.4421C11.1516 19.7993 10.6671 20 10.1619 20H8.57143C8.06625 20 7.58177 19.7993 7.22456 19.4421C6.86735 19.0849 6.66667 18.6004 6.66667 18.0952V12.8952C6.66667 11.2534 7.31888 9.67885 8.47981 8.51791C9.64075 7.35697 11.2153 6.70476 12.8571 6.70476C14.499 6.70476 16.0735 7.35697 17.2345 8.51791C18.3954 9.67885 19.0476 11.2534 19.0476 12.8952V18.0952C19.0476 18.6004 18.8469 19.0849 18.4897 19.4421C18.1325 19.7993 17.648 20 17.1429 20ZM12.8571 10.181C13.0062 10.1715 13.1557 10.1715 13.3048 10.181C13.9442 10.3039 14.5198 10.6481 14.9308 11.1532C15.3418 11.6582 15.5619 12.2918 15.5524 12.9429V18.0952H17.1429V12.8952C17.1429 11.7586 16.6913 10.6685 15.8876 9.86478C15.0839 9.06105 13.9938 8.60952 12.8571 8.60952C11.7205 8.60952 10.6304 9.06105 9.82668 9.86478C9.02296 10.6685 8.57143 11.7586 8.57143 12.8952V18.0952H10.1619V12.8952C10.1619 12.1787 10.4452 11.4911 10.9502 10.9827C11.4551 10.4742 12.1406 10.186 12.8571 10.181ZM3.80952 20H1.90476C1.39959 20 0.915105 19.7993 0.557893 19.4421C0.200681 19.0849 1.31421e-06 18.6004 1.31421e-06 18.0952V8.57143C1.31421e-06 8.06625 0.200681 7.58177 0.557893 7.22456C0.915105 6.86735 1.39959 6.66667 1.90476 6.66667H3.80952C4.3147 6.66667 4.79918 6.86735 5.15639 7.22456C5.51361 7.58177 5.71429 8.06625 5.71429 8.57143V18.0952C5.71429 18.6004 5.51361 19.0849 5.15639 19.4421C4.79918 19.7993 4.3147 20 3.80952 20ZM1.90476 8.57143V18.0952H3.80952V8.57143H1.90476ZM2.85714 5.71429C2.29205 5.71429 1.73966 5.54672 1.2698 5.23277C0.799946 4.91882 0.433739 4.4726 0.217488 3.95053C0.00123796 3.42845 -0.055343 2.85397 0.0549005 2.29974C0.165144 1.74551 0.437261 1.23642 0.836839 0.836839C1.23642 0.43726 1.74551 0.165144 2.29974 0.0549005C2.85397 -0.055343 3.42845 0.00123796 3.95053 0.217488C4.4726 0.433739 4.91882 0.799946 5.23277 1.2698C5.54672 1.73966 5.71429 2.29205 5.71429 2.85714C5.71429 3.61491 5.41327 4.34163 4.87745 4.87745C4.34163 5.41327 3.61491 5.71429 2.85714 5.71429ZM2.85714 1.90476C2.66878 1.90476 2.48465 1.96062 2.32803 2.06527C2.17141 2.16992 2.04934 2.31866 1.97726 2.49268C1.90518 2.66671 1.88631 2.8582 1.92306 3.04294C1.95981 3.22769 2.05052 3.39739 2.18371 3.53058C2.3169 3.66377 2.4866 3.75448 2.67134 3.79123C2.85609 3.82797 3.04758 3.80911 3.2216 3.73703C3.39563 3.66495 3.54437 3.54288 3.64902 3.38626C3.75367 3.22964 3.80952 3.04551 3.80952 2.85714C3.80952 2.60456 3.70918 2.36232 3.53058 2.18371C3.35197 2.0051 3.10973 1.90476 2.85714 1.90476Z" fill="#A5ABBD"/>
</svg>
