<svg width="27" height="20" viewBox="0 0 27 20" fill="none" xmlns="http://www.w3.org/2000/svg">
<path d="M0 3.33333C0 1.49219 1.49219 0 3.33333 0H23.3333C25.1719 0 26.6667 1.49219 26.6667 3.33333V16.6667C26.6667 18.5052 25.1719 20 23.3333 20H3.33333C1.49219 20 0 18.5052 0 16.6667V3.33333ZM2.5 3.33333V4.48438L11.4844 11.8594C12.5573 12.7448 14.1094 12.7448 15.1823 11.8594L24.1667 4.48438V3.28646C24.1667 2.875 23.7917 2.45312 23.3333 2.45312H3.33333C2.87292 2.45312 2.5 2.875 2.5 3.28646V3.33333ZM2.5 7.71875V16.6667C2.5 17.125 2.87292 17.5 3.33333 17.5H23.3333C23.7917 17.5 24.1667 17.125 24.1667 16.6667V7.71875L16.7708 13.7917C14.7708 15.4323 11.8958 15.4323 9.84896 13.7917L2.5 7.71875Z" fill="#A5ABBD"/>
</svg>
