<svg width="17" height="18" viewBox="0 0 17 18" fill="none" xmlns="http://www.w3.org/2000/svg">
<path d="M6.97025 15.955C6.97023 15.8351 6.94383 15.7166 6.89292 15.608C6.84201 15.4994 6.76782 15.4033 6.67563 15.3265C6.58344 15.2498 6.4755 15.1942 6.35945 15.1638C6.24341 15.1334 6.1221 15.1289 6.00412 15.1507C4.93334 15.3472 3.58139 15.3767 3.22193 14.3671C2.90849 13.5851 2.3893 12.9025 1.71941 12.3917C1.67161 12.3657 1.62606 12.3358 1.58322 12.3022C1.52459 12.1476 1.42045 12.0143 1.28455 11.92C1.14864 11.8258 0.987357 11.7749 0.821965 11.7742H0.817973C0.601703 11.7741 0.39421 11.8597 0.24091 12.0123C0.0876108 12.1648 0.000991501 12.3719 1.14686e-05 12.5882C-0.00318676 13.2552 0.663378 13.6825 0.933796 13.8271C1.25267 14.1475 1.50895 14.5246 1.68945 14.939C1.9874 15.7762 2.85329 17.0462 5.34232 16.8825C5.34314 16.9113 5.34392 16.9384 5.34432 16.9632L5.34791 17.182C5.34791 17.399 5.43409 17.607 5.58748 17.7604C5.74088 17.9138 5.94893 18 6.16587 18C6.38281 18 6.59086 17.9138 6.74426 17.7604C6.89765 17.607 6.98383 17.399 6.98383 17.182L6.97984 16.9216C6.97585 16.7666 6.97025 16.5422 6.97025 15.955ZM15.6954 3.58256C15.7214 3.48032 15.747 3.36689 15.7693 3.23908C15.9016 2.32754 15.7863 1.39719 15.4354 0.545538C15.3912 0.43451 15.3231 0.33451 15.2361 0.252546C15.1491 0.170583 15.0453 0.108641 14.9318 0.0710628C14.6406 -0.0271908 13.5655 -0.2205 11.5094 1.09351C9.80029 0.691318 8.02116 0.691318 6.31206 1.09351C4.26436 -0.201253 3.19477 -0.0255548 2.90641 0.0671038C2.79015 0.10316 2.68343 0.164774 2.59407 0.24743C2.50471 0.330086 2.43498 0.431689 2.38999 0.544793C2.03197 1.4128 1.91789 2.36212 2.06009 3.29023C2.08006 3.39487 2.10162 3.49153 2.124 3.58019C1.44637 4.48276 1.08544 5.58368 1.09715 6.71225C1.09494 6.96404 1.10654 7.21577 1.1319 7.4663C1.4051 11.231 3.85898 12.3613 5.56877 12.7495C5.53323 12.8518 5.50088 12.9612 5.47212 13.077C5.42087 13.2875 5.45517 13.5097 5.5675 13.6949C5.67983 13.8801 5.86102 14.0132 6.07134 14.065C6.28166 14.1168 6.50395 14.0831 6.68945 13.9713C6.87496 13.8594 7.00854 13.6786 7.06092 13.4684C7.11296 13.1959 7.24636 12.9455 7.44354 12.7503C7.56277 12.6459 7.64908 12.5092 7.692 12.3566C7.73492 12.2041 7.73258 12.0424 7.68527 11.8911C7.63796 11.7399 7.54773 11.6057 7.42554 11.5048C7.30335 11.4039 7.15447 11.3407 6.99702 11.3229C4.1717 11.0002 2.94515 9.8491 2.76063 7.31614C2.74019 7.11552 2.73099 6.91391 2.73307 6.71226C2.71995 5.90792 2.98568 5.12384 3.48513 4.49322C3.53532 4.42747 3.58877 4.36428 3.64529 4.3039C3.74543 4.19184 3.81277 4.05436 3.83989 3.90654C3.86702 3.75872 3.85289 3.60629 3.79907 3.46597C3.74388 3.31835 3.70139 3.1663 3.67206 3.01145C3.60542 2.57116 3.62728 2.12199 3.73635 1.69025C4.44727 1.89104 5.11635 2.21787 5.71173 2.65518C5.81019 2.72076 5.9216 2.7644 6.0384 2.78315C6.1552 2.80189 6.27467 2.7953 6.38871 2.76382C8.0419 2.31517 9.78482 2.31545 11.4379 2.76464C11.5525 2.79609 11.6726 2.8023 11.7899 2.78286C11.9072 2.76341 12.0189 2.71878 12.1172 2.65202C12.7098 2.21288 13.3761 1.88313 14.0847 1.67829C14.1932 2.09967 14.2175 2.53834 14.1561 2.96913C14.1265 3.13889 14.0802 3.30531 14.0179 3.46599C13.9641 3.6063 13.95 3.75874 13.9771 3.90655C14.0043 4.05437 14.0716 4.19186 14.1717 4.30392C14.2348 4.375 14.2979 4.45169 14.3546 4.52358C14.8506 5.14353 15.1118 5.91859 15.0924 6.71225C15.0938 6.9246 15.0836 7.13687 15.0616 7.34808C14.8815 9.84749 13.6501 10.9994 10.8116 11.3229C10.6541 11.3408 10.5053 11.4041 10.3831 11.5051C10.2609 11.6061 10.1707 11.7404 10.1234 11.8917C10.0762 12.043 10.0739 12.2048 10.1169 12.3573C10.1598 12.5099 10.2462 12.6467 10.3655 12.7511C10.5689 12.9515 10.7026 13.2119 10.7469 13.494C10.8022 13.7129 10.8276 13.9384 10.8224 14.1642V16.0733C10.8144 16.6029 10.8144 16.9999 10.8144 17.182C10.8144 17.3989 10.9006 17.607 11.054 17.7604C11.2074 17.9138 11.4154 18 11.6324 18C11.8493 18 12.0574 17.9138 12.2108 17.7604C12.3642 17.607 12.4503 17.3989 12.4503 17.182C12.4503 17.0047 12.4503 16.6157 12.4583 16.0861V14.1642C12.4649 13.8025 12.4223 13.4416 12.3317 13.0914C12.3058 12.9764 12.2741 12.8629 12.2367 12.7511C13.481 12.5444 14.6116 11.9028 15.4272 10.9406C16.2428 9.97845 16.6906 8.75804 16.6907 7.49666C16.7177 7.23608 16.7302 6.97421 16.7283 6.71225C16.7464 5.58245 16.3825 4.47963 15.6954 3.58256Z" fill="#A5ABBD"/>
</svg>
