<svg width="24" height="20" viewBox="0 0 24 20" fill="none" xmlns="http://www.w3.org/2000/svg">
<path d="M23.5038 1.39804C23.5039 1.20934 23.454 1.02397 23.3592 0.860818C23.2644 0.697667 23.128 0.562559 22.964 0.469255C22.8 0.375951 22.6142 0.327783 22.4255 0.329658C22.2368 0.331533 22.052 0.383382 21.8898 0.479927C21.2645 0.852122 20.5913 1.13716 19.8888 1.32712C18.8856 0.466286 17.6061 -0.00477792 16.2842 3.65421e-05C14.834 0.00170597 13.4412 0.566893 12.3999 1.57625C11.3587 2.58561 10.7504 3.96014 10.7036 5.40958C7.84466 4.95368 5.25355 3.46148 3.42435 1.21754C3.31413 1.08382 3.17338 0.97857 3.01395 0.910658C2.85453 0.842745 2.68111 0.814166 2.50833 0.827331C2.33564 0.84155 2.16902 0.89762 2.02286 0.990692C1.87671 1.08376 1.75543 1.21104 1.6695 1.3615C1.22884 2.13051 0.975755 2.99261 0.930797 3.87778C0.88584 4.76296 1.05028 5.64626 1.41076 6.45596L1.40868 6.45804C1.24666 6.55783 1.11295 6.69752 1.02034 6.86375C0.92773 7.02997 0.879313 7.21718 0.87972 7.40746C0.877759 7.56443 0.887174 7.72134 0.907892 7.87695C1.01701 9.22121 1.61277 10.4795 2.58344 11.4158C2.51759 11.5413 2.4774 11.6786 2.46522 11.8198C2.45304 11.9609 2.46911 12.1031 2.51249 12.238C2.93568 13.5565 3.83564 14.6696 5.03626 15.3595C3.81646 15.8312 2.49938 15.9957 1.20106 15.8384C0.960757 15.8083 0.717343 15.8607 0.510744 15.987C0.304145 16.1134 0.146629 16.3063 0.0640337 16.5339C-0.0185618 16.7616 -0.0213321 17.0106 0.0561769 17.24C0.133686 17.4695 0.286872 17.6657 0.490608 17.7967C2.72355 19.2349 5.32346 19.9995 7.97946 19.9991C10.9914 20.033 13.9301 19.0705 16.3384 17.2614C18.7468 15.4523 20.4897 12.898 21.2962 9.99587C21.6734 8.73163 21.866 7.41952 21.8679 6.10021C21.8679 6.03031 21.8679 5.95833 21.8669 5.88634C22.4247 5.28479 22.8568 4.57794 23.1379 3.80723C23.419 3.03652 23.5434 2.21745 23.5038 1.39804ZM19.9712 4.82947C19.7947 5.03816 19.7054 5.3068 19.7218 5.57961C19.7323 5.75588 19.7312 5.93323 19.7312 6.10021C19.729 7.21507 19.5656 8.32376 19.2461 9.39185C18.5874 11.8612 17.1192 14.0381 15.0764 15.5739C13.0337 17.1097 10.5346 17.9156 7.97946 17.8624C7.06162 17.8627 6.14695 17.7549 5.25435 17.5411C6.39257 17.1743 7.45684 16.6088 8.39782 15.8708C8.57114 15.7343 8.69798 15.5476 8.76094 15.3362C8.82391 15.1247 8.81991 14.899 8.7495 14.69C8.67909 14.4809 8.54571 14.2988 8.36768 14.1686C8.18964 14.0383 7.97566 13.9664 7.75511 13.9626C6.86713 13.9488 6.01919 13.5908 5.38993 12.9641C5.54956 12.9339 5.70815 12.8963 5.86569 12.8514C6.09646 12.7858 6.29841 12.6443 6.43903 12.4499C6.57964 12.2555 6.65073 12.0194 6.64085 11.7797C6.63097 11.5399 6.5407 11.3105 6.38457 11.1283C6.22843 10.9461 6.01553 10.8217 5.78013 10.7753C5.2647 10.6735 4.77968 10.4542 4.36278 10.1345C3.94587 9.81472 3.60832 9.40316 3.37636 8.93174C3.56944 8.9581 3.76375 8.97446 3.95852 8.98078C4.18991 8.98428 4.41641 8.91409 4.60527 8.78036C4.79413 8.64664 4.93557 8.45631 5.00913 8.2369C5.07962 8.0155 5.07599 7.77715 4.9988 7.558C4.92161 7.33885 4.77506 7.15084 4.58138 7.02249C4.11146 6.70944 3.72653 6.28472 3.46106 5.78637C3.19559 5.28803 3.05787 4.73162 3.06023 4.16698C3.06023 4.09604 3.06232 4.02509 3.06649 3.95519C5.46094 6.1883 8.56668 7.50471 11.8365 7.67248C12.0016 7.67899 12.166 7.6479 12.3172 7.58157C12.4685 7.51524 12.6028 7.4154 12.7098 7.28959C12.8158 7.16257 12.8908 7.01268 12.929 6.85174C12.9672 6.69079 12.9675 6.52318 12.9299 6.3621C12.8688 6.10715 12.8376 5.84595 12.837 5.58378C12.838 4.66985 13.2015 3.79363 13.8477 3.14739C14.494 2.50114 15.3702 2.13766 16.2841 2.13669C16.7544 2.13544 17.2197 2.23167 17.6509 2.41932C18.082 2.60697 18.4696 2.88197 18.7891 3.22695C18.9123 3.35951 19.0674 3.45835 19.2396 3.51405C19.4118 3.56976 19.5954 3.58048 19.7729 3.5452C20.2118 3.45979 20.6444 3.34477 21.0677 3.20092C20.7789 3.79168 20.4099 4.33971 19.9712 4.82947Z" fill="#A5ABBD" fill-opacity="0.5"/>
</svg>
