<svg width="597" height="561" viewBox="0 0 597 561" fill="none" xmlns="http://www.w3.org/2000/svg">
<path d="M767.663 73.115C754.223 19.1798 728.739 -21.4898 674.455 -21.4898H604.461V61.2458C604.461 125.479 550.002 179.589 487.863 179.589H301.446C250.478 179.589 208.237 223.226 208.237 274.368V452.058C208.237 502.677 252.223 532.35 301.446 546.837C360.443 564.117 417.171 567.259 487.863 546.837C534.816 533.223 581.072 505.819 581.072 452.058V381.017H394.829V357.278H674.455C728.739 357.278 748.812 319.402 767.663 262.674C787.213 204.2 786.34 147.996 767.663 73.115ZM499.558 428.319C518.933 428.319 534.642 444.203 534.642 463.753C534.642 483.476 518.933 499.36 499.558 499.36C480.357 499.36 464.474 483.302 464.474 463.753C464.648 444.029 480.357 428.319 499.558 428.319ZM292.893 156.2H479.31C531.151 156.2 572.519 113.436 572.519 61.4203V-116.444C572.519 -167.063 529.929 -204.939 479.31 -213.492C416.822 -223.791 348.923 -223.267 292.893 -213.318C213.997 -199.354 199.684 -170.204 199.684 -116.269V-45.2283H386.276V-21.4898H129.69C75.4061 -21.4898 27.929 11.1506 13.0924 73.115C-4.0133 144.156 -4.71149 188.491 13.0924 262.674C26.3581 317.831 57.9513 357.278 112.236 357.278H176.295V272.099C176.295 210.484 229.532 156.2 292.893 156.2ZM281.198 -92.7052C261.823 -92.7052 246.114 -108.589 246.114 -128.138C246.289 -147.862 261.823 -163.746 281.198 -163.746C300.398 -163.746 316.282 -147.688 316.282 -128.138C316.282 -108.589 300.573 -92.7052 281.198 -92.7052Z" fill="#A5ABBD" fill-opacity="0.1"/>
</svg>
